<?xml version="1.0" encoding="UTF-8"?>
<svg version="1.1" xmlns="http://www.w3.org/2000/svg" width="473" height="474">
<path d="M0 0 C156.09 0 312.18 0 473 0 C473 156.42 473 312.84 473 474 C316.91 474 160.82 474 0 474 C0 317.58 0 161.16 0 0 Z " fill="#020202" transform="translate(0,0)"/>
<path d="M0 0 C0 0.66 0 1.32 0 2 C-1.22976562 2.33773437 -2.45953125 2.67546875 -3.7265625 3.0234375 C-5.35939802 3.47387489 -6.99220924 3.92440038 -8.625 4.375 C-9.83736328 4.70757812 -9.83736328 4.70757812 -11.07421875 5.046875 C-15.42749072 6.25021847 -19.72989508 7.52135525 -24 9 C-23.01 11.475 -23.01 11.475 -22 14 C-17.29073246 13.39421367 -13.18577567 12.01639553 -8.8125 10.25 C0.27128147 6.72162427 9.53133406 4.25914716 19 2 C19.67450195 1.83338867 20.34900391 1.66677734 21.04394531 1.49511719 C32.12569411 -1.20952388 45.67514643 -4.01355108 56 2 C56 2.33 56 2.66 56 3 C54.76507813 3.24234375 53.53015625 3.4846875 52.2578125 3.734375 C47.74464666 4.62416218 43.23545565 5.53274536 38.72753906 6.44873047 C37.0220677 6.79342742 35.31580163 7.13424145 33.60839844 7.46923828 C22.00526032 9.75194715 11.08009297 13.16700815 0.00439453 17.30737305 C-1.97933669 17.9928597 -3.95717426 18.52265342 -6 19 C-5.01 20.423125 -5.01 20.423125 -4 21.875 C-2 25 -2 25 -2 27 C-1.21689453 26.72119995 -1.21689453 26.72119995 -0.41796875 26.43676758 C31.51420986 15.09483242 31.51420986 15.09483242 48 12 C49.30710937 11.74621582 49.30710937 11.74621582 50.640625 11.48730469 C80.80074023 5.66925543 80.80074023 5.66925543 88.8125 10.4375 C90.70703125 11.80859375 90.70703125 11.80859375 92 13 C92 13.33 92 13.66 92 14 C90.32164062 14.11214844 90.32164062 14.11214844 88.609375 14.2265625 C77.99972107 15.0544737 67.71799985 16.69874094 57.3125 18.9375 C56.13204102 19.19031738 54.95158203 19.44313477 53.73535156 19.70361328 C47.95658444 20.98440628 42.35089658 22.40291995 36.79370117 24.45141602 C35 25 35 25 32 25 C32.99 26.670625 32.99 26.670625 34 28.375 C36 31.75 36 31.75 36 34 C37.2375 33.62488281 38.475 33.24976563 39.75 32.86328125 C49.65466431 29.91655894 59.57005362 27.30217316 69.6875 25.1875 C70.66525391 24.9810083 71.64300781 24.7745166 72.65039062 24.56176758 C82.30164391 22.60104795 91.84782638 21.78243478 101.6875 21.625 C102.58533203 21.58761719 103.48316406 21.55023438 104.40820312 21.51171875 C110.9110201 21.42596732 114.11981992 22.66057859 119 27 C119 27.33 119 27.66 119 28 C118.06824951 28.05160278 118.06824951 28.05160278 117.11767578 28.10424805 C100.41951475 29.08819779 84.34917557 31.48987152 68 35 C68 38.08009879 69.5972268 40.31135136 71 43 C81.96700052 40.85354707 81.96700052 40.85354707 92.875 38.4296875 C100.34844069 36.91851383 107.79370659 36.68257886 115.38818359 36.5949707 C116.7963096 36.57331975 118.20429849 36.53913195 119.61181641 36.49243164 C132.82697459 36.05972837 132.82697459 36.05972837 137.46875 39.96484375 C140 43 140 43 140 44 C139.1656543 44.01458252 138.33130859 44.02916504 137.47167969 44.04418945 C115.21784639 44.47732802 94.45271479 46.2754895 72.8671875 52.01171875 C69 53 69 53 67 53 C67.495 53.78375 67.99 54.5675 68.5 55.375 C70 58 70 58 70 60 C70.56203125 59.75765625 71.1240625 59.5153125 71.703125 59.265625 C81.15052961 55.49825506 91.02579993 53.77654069 101 52 C101.93602051 51.82130371 102.87204102 51.64260742 103.83642578 51.45849609 C109.3362028 50.66141466 114.87621298 50.8140585 120.42260742 50.81469727 C122.5599333 50.81250264 124.69674899 50.79428684 126.83398438 50.77539062 C128.20312325 50.77245748 129.57226456 50.77047216 130.94140625 50.76953125 C132.17576416 50.76542236 133.41012207 50.76131348 134.68188477 50.75708008 C139.61421438 51.11817698 142.00961521 51.87577943 145.3125 55.625 C146.1478125 56.800625 146.1478125 56.800625 147 58 C146.01717041 58.02505615 145.03434082 58.0501123 144.02172852 58.07592773 C140.33705031 58.17088119 136.65252255 58.27087838 132.96801758 58.37231445 C131.38048855 58.41533386 129.792923 58.45702837 128.20532227 58.49731445 C116.07231807 58.80223817 116.07231807 58.80223817 104 60 C104.33 62.31 104.66 64.62 105 67 C105.62076416 66.85852539 106.24152832 66.71705078 106.88110352 66.57128906 C114.93723736 64.90425018 122.7301677 64.70058305 130.9375 64.75 C132.85852539 64.73839844 132.85852539 64.73839844 134.81835938 64.7265625 C156.25220473 64.77023819 156.25220473 64.77023819 164 70 C166.375 72.6875 166.375 72.6875 168 75 C164.31050756 76.32881227 161.8774138 75.61799061 158.16015625 74.578125 C150.83693971 72.78184504 143.94617024 72.62307055 136.4375 72.75 C134.60155273 72.75773437 134.60155273 72.75773437 132.72851562 72.765625 C125.11159062 72.83048439 117.57939116 73.2484404 110 74 C110.99 77.96 110.99 77.96 112 82 C113.03181396 82.0093457 114.06362793 82.01869141 115.12670898 82.02832031 C119.04296351 82.06891607 122.95848819 82.13484554 126.87426758 82.20751953 C128.55255589 82.23533382 130.23096559 82.25673956 131.90942383 82.27099609 C147.30099938 82.40936806 167.94669284 83.16224777 179.625 94.5625 C180.88367693 96.79379093 181.44708095 98.53272916 182 101 C181.45698242 100.80365967 180.91396484 100.60731934 180.35449219 100.4050293 C156.80290742 91.9257611 135.07516488 87.71145379 110 91 C109.67 92.65 109.34 94.3 109 96 C109.73935791 95.97905273 110.47871582 95.95810547 111.24047852 95.93652344 C129.48805193 95.48796387 144.77909446 95.68729188 161 105 C161 105.99 161 106.98 161 108 C159.02 108 157.04 108 155 108 C154.67 109.32 154.34 110.64 154 112 C154.89525391 112.05994141 154.89525391 112.05994141 155.80859375 112.12109375 C168.57210665 113.65726692 182.60453435 121.22273701 191 131 C192.87134775 134.17106194 193.20471102 136.31520165 193 140 C189.71544802 138.53275116 187.28524051 136.6495572 184.5625 134.3125 C169.44470579 122.21388901 151.75960483 118.17940227 133 115 C132.67 116.98 132.34 118.96 132 121 C132.98613281 121.07734375 132.98613281 121.07734375 133.9921875 121.15625 C151.96465683 123.29930867 172.12636857 133.85107846 183.4375 148.0625 C185.06427331 151.12083383 185.67315899 153.56816938 186 157 C182.92545361 155.27056765 180.14412817 153.35835974 177.375 151.1875 C172.58000219 147.52235799 167.34628618 144.77142041 162 142 C161.34 143.65 160.68 145.3 160 147 C160.87269531 147.24878906 161.74539063 147.49757812 162.64453125 147.75390625 C174.53829149 152.17079742 186.77949836 164.20166088 192.6875 175.1875 C194.91090005 180.07388349 195.61317688 183.68580039 195 189 C194.01 189.33 193.02 189.66 192 190 C191.61070312 189.18917969 191.22140625 188.37835938 190.8203125 187.54296875 C181.04742495 168.19985722 165.54449706 157.19904283 146 149 C144.89591797 148.51080078 144.89591797 148.51080078 143.76953125 148.01171875 C123.70302918 139.6685036 99.35860396 140.91605751 78 140 C77.67 141.98 77.34 143.96 77 146 C77.86443726 146.01401855 77.86443726 146.01401855 78.74633789 146.02832031 C90.10703725 146.25681116 101.23096648 146.92061722 112.4375 148.875 C113.3766626 149.03645508 114.3158252 149.19791016 115.28344727 149.36425781 C120.7921861 150.38558821 125.84768107 151.80628136 131 154 C131.72292236 154.30421875 132.44584473 154.6084375 133.19067383 154.921875 C154.91147602 164.29662788 172.01336124 177.71130377 181.75 199.9375 C185.44047628 209.37683703 190.30185773 222.40952247 185.98046875 232.34375 C185.49513672 233.16359375 185.49513672 233.16359375 185 234 C184.01 233.67 183.02 233.34 182 233 C181.0706591 230.50876683 180.31874505 228.11899369 179.625 225.5625 C174.06473407 206.60933691 162.78436332 192.30014982 145.31835938 182.69384766 C132.81552059 176.10789285 119.69894705 173.02111228 106 170 C106 171.65 106 173.3 106 175 C107.08796875 175.42410156 108.1759375 175.84820312 109.296875 176.28515625 C134.22686446 186.15920872 155.69990553 201.75471878 166.86132812 226.94384766 C170.77913068 236.59352299 172.19267044 245.23601213 172.25 255.5625 C172.270625 256.49513672 172.29125 257.42777344 172.3125 258.38867188 C172.34120429 263.42268702 172.2930246 266.90105095 169 271 C168.01 270.67 167.02 270.34 166 270 C165.96261719 268.93523437 165.92523438 267.87046875 165.88671875 266.7734375 C164.88339506 242.98860211 158.13306334 222.16215174 141 205 C139.96939453 203.95199219 139.96939453 203.95199219 138.91796875 202.8828125 C116.28009926 181.29493696 79.17079945 174.60901395 50 167 C50 168.65 50 170.3 50 172 C50.60247559 172.20044922 51.20495117 172.40089844 51.82568359 172.60742188 C65.20640554 177.08713216 78.29377102 181.84189718 91 188 C91.6487207 188.31404785 92.29744141 188.6280957 92.96582031 188.95166016 C112.32969373 198.47576601 133.24507742 211.40018218 142 232 C142 232.66 142 233.32 142 234 C138.80554305 232.60286388 136.81065188 230.97467102 134.4375 228.4375 C114.89198598 208.42144583 90.24802291 196.18272802 64.56542969 186.02148438 C53.70893828 181.69872457 42.990094 177.02679622 32.24902344 172.42675781 C29.53394556 171.26453087 26.81776958 170.10489746 24.1015625 168.9453125 C15.05384498 165.07644389 6.02441807 161.16604509 -2.96875 157.171875 C-3.78927856 156.81192444 -4.60980713 156.45197388 -5.4552002 156.08111572 C-9.94941196 154.07012771 -14.09128457 152.01481452 -18 149 C-18.33 148.01 -18.66 147.02 -19 146 C-13.41672859 146.89520807 -7.84531363 147.83307552 -2.2890625 148.8828125 C23.72689482 153.78920081 49.73024551 156.7923726 76.08447266 159.16186523 C89.46179348 160.37800239 102.72419682 161.95007915 116 164 C116.33 162.02 116.66 160.04 117 158 C116.17822266 157.92652344 116.17822266 157.92652344 115.33984375 157.8515625 C110.2594287 157.37243393 105.21371726 156.76399571 100.16015625 156.0546875 C92.67555256 155.03418664 85.18034773 154.3163997 77.65435791 153.68191528 C75.43052465 153.49413346 73.20718557 153.30117865 70.98388672 153.10717773 C64.54582108 152.54744195 58.10720311 152.0023697 51.6640625 151.50390625 C7.55354188 148.03873241 7.55354188 148.03873241 -8 142 C-8.33 141.34 -8.66 140.68 -9 140 C-8.21052979 139.9498877 -7.42105957 139.89977539 -6.60766602 139.84814453 C20.56702873 138.10336177 46.43437562 134.71399912 72.91210938 128.16845703 C75.69844367 127.48746332 78.11700351 127 81 127 C81 125.02 81 123.04 81 121 C80.18547363 121.19634033 79.37094727 121.39268066 78.53173828 121.5949707 C58.44690632 126.41572703 38.7166693 131.11388878 18 132 C19 130 20 128 21 126 C23.26904297 125.31396484 23.26904297 125.31396484 26.2421875 124.7109375 C27.30824219 124.49179688 28.37429688 124.27265625 29.47265625 124.046875 C30.59542969 123.82515625 31.71820313 123.6034375 32.875 123.375 C33.99003906 123.14554687 35.10507812 122.91609375 36.25390625 122.6796875 C44.54236421 121 44.54236421 121 48 121 C47.67 118.69 47.34 116.38 47 114 C46.13117188 114.28875 45.26234375 114.5775 44.3671875 114.875 C43.21476563 115.24625 42.06234375 115.6175 40.875 116 C39.73804688 116.37125 38.60109375 116.7425 37.4296875 117.125 C34.12104059 117.96911949 31.39471984 118.16509276 28 118 C28.25523874 116.37247769 28.52974494 114.74796804 28.8125 113.125 C29.03873047 111.76761719 29.03873047 111.76761719 29.26953125 110.3828125 C30 108 30 108 33 106 C35.76584488 105.17631579 38.52136951 104.41342484 41.3125 103.6875 C55.36179472 99.88148971 68.12721079 94.73731695 81 88 C80.67 87.01 80.34 86.02 80 85 C73.75348497 86.96989771 67.74611854 89.49682118 61.6953125 91.99023438 C45.44397249 98.58768204 45.44397249 98.58768204 38 98 C38.21240234 96.13208008 38.21240234 96.13208008 39 94 C40.98681641 92.83081055 40.98681641 92.83081055 43.6015625 91.88671875 C44.56046387 91.52916504 45.51936523 91.17161133 46.50732422 90.80322266 C47.53615723 90.43503418 48.56499023 90.0668457 49.625 89.6875 C51.72528498 88.90066757 53.82424467 88.11028865 55.921875 87.31640625 C56.95505859 86.92727051 57.98824219 86.53813477 59.05273438 86.13720703 C63.05472709 84.59303191 66.9782916 82.91674196 70.875 81.125 C72.04804688 80.59132813 73.22109375 80.05765625 74.4296875 79.5078125 C77.29754228 78.20448948 77.29754228 78.20448948 78 75 C77.32533691 75.25692627 76.65067383 75.51385254 75.95556641 75.77856445 C72.84672951 76.96013522 69.73588899 78.13634326 66.625 79.3125 C65.56410156 79.71662109 64.50320313 80.12074219 63.41015625 80.53710938 C45.67861976 87.22722897 45.67861976 87.22722897 39 87 C39.9721671 84.52445513 40.58015666 83.24803053 42.90429688 81.875 C43.66806641 81.58625 44.43183594 81.2975 45.21875 81 C46.06953125 80.67 46.9203125 80.34 47.796875 80 C49.13492188 79.505 49.13492188 79.505 50.5 79 C51.36109375 78.67 52.2221875 78.34 53.109375 78 C54.85063377 77.33269125 56.59414726 76.6712368 58.33984375 76.015625 C61.9144077 74.65088693 65.45082335 73.19695454 68.98632812 71.734375 C71 71 71 71 73 71 C73 70.01 73 69.02 73 68 C72.30438965 68.24234375 71.6087793 68.4846875 70.89208984 68.734375 C67.72294218 69.83246381 64.54910784 70.91633688 61.375 72 C60.28058594 72.3815625 59.18617188 72.763125 58.05859375 73.15625 C56.99511719 73.5171875 55.93164062 73.878125 54.8359375 74.25 C53.86188965 74.58515625 52.8878418 74.9203125 51.88427734 75.265625 C48.81481042 76.04715171 46.15420354 76.13091377 43 76 C43 75.34 43 74.68 43 74 C48.28 71.69 53.56 69.38 59 67 C57.288125 67.33 55.57625 67.66 53.8125 68 C50.13831064 68.70827747 46.74341057 69.10949647 43 69 C45.274694 66.44736912 47.43202693 65.15855185 50.5625 63.8125 C51.34753906 63.46832031 52.13257813 63.12414062 52.94140625 62.76953125 C55 62 55 62 57 62 C57 61.34 57 60.68 57 60 C36.36565095 62.26536561 16.26460284 65.40877694 -4 70 C-5.44705322 70.31904297 -5.44705322 70.31904297 -6.92333984 70.64453125 C-20.84075186 73.71473066 -34.42910723 77.65790307 -48 82 C-48.82693359 82.26458008 -49.65386719 82.52916016 -50.50585938 82.80175781 C-57.21943315 84.96538703 -63.90657407 87.17706999 -70.4921875 89.70703125 C-71.21865479 89.98603271 -71.94512207 90.26503418 -72.69360352 90.55249023 C-74.06207106 91.08369972 -75.42742933 91.62302276 -76.78881836 92.17211914 C-80.32705047 93.55696857 -83.19443238 94.30444541 -87 94 C-82.49510809 83.21328659 -69.17685861 74.73512787 -60 68 C-59.4229834 67.57332031 -58.8459668 67.14664063 -58.25146484 66.70703125 C-47.5892339 58.92656522 -36.02249154 53.36864667 -24 48 C-23.31550781 47.68659668 -22.63101563 47.37319336 -21.92578125 47.05029297 C-19.08924262 45.77845922 -17.14857663 45 -14 45 C-14.99 43.02 -15.98 41.04 -17 39 C-45.21227299 45.66482596 -70.04012964 64.69599395 -90 85 C-91.65 84.34 -93.3 83.68 -95 83 C-93.51155923 77.53182753 -89.72962133 74.23434803 -85.8125 70.375 C-85.09779541 69.66786865 -84.38309082 68.9607373 -83.64672852 68.23217773 C-72.22449852 57.15458941 -49.53029962 37 -33 37 C-33.99 34.03 -33.99 34.03 -35 31 C-63.84241722 43.82236989 -89.50806641 62.03877558 -108 88 C-110.4375 87.625 -110.4375 87.625 -113 87 C-113.495 86.01 -113.495 86.01 -114 85 C-99.24174491 62.68632422 -80.74747969 46.72441008 -58 33 C-58.66 32.67 -59.32 32.34 -60 32 C-62.21742541 33.0445723 -64.268294 34.13630629 -66.375 35.375 C-67.00132324 35.74004639 -67.62764648 36.10509277 -68.27294922 36.48120117 C-81.60142662 44.40646961 -100.85543405 57.7108681 -108 72 C-109.65 71.34 -111.3 70.68 -113 70 C-112.13478326 63.98468359 -109.10241747 61.27449874 -105 57 C-104.55076172 56.51966309 -104.10152344 56.03932617 -103.63867188 55.54443359 C-92.17617756 43.32260627 -79.48304978 33.98577732 -64.79541016 25.98681641 C-61.54720934 24.20149852 -58.33918184 22.34562589 -55.125 20.5 C-53.94026692 19.82263193 -52.75538686 19.14552082 -51.5703125 18.46875 C-50.72210938 17.9840625 -49.87390625 17.499375 -49 17 C-55.94166172 18.83838509 -62.12414737 21.27761087 -68.4375 24.6875 C-69.26588379 25.13101807 -70.09426758 25.57453613 -70.94775391 26.03149414 C-77.37701069 29.53567199 -83.31431118 33.3713208 -89 38 C-89.51224121 38.41362793 -90.02448242 38.82725586 -90.55224609 39.25341797 C-112.66808173 57.11753043 -112.66808173 57.11753043 -127 81 C-128.98 80.34 -130.96 79.68 -133 79 C-130.259859 60.28684192 -106.67389558 41.35663563 -92.53173828 30.70410156 C-73.0056266 16.32910273 -24.39384131 -12.59036971 0 0 Z " fill="#F4F4F6" transform="translate(239,50)"/>
<path d="M0 0 C5.23695584 2.31137666 9.88100619 4.96363905 14.37060547 8.50219727 C15.12857422 9.08614258 15.88654297 9.67008789 16.66748047 10.27172852 C23.17165205 15.63003094 28.40591453 22.09111097 31.30810547 30.08422852 C31.37060547 32.50219727 31.37060547 32.50219727 29.43310547 34.81469727 C28.75248047 35.37157227 28.07185547 35.92844727 27.37060547 36.50219727 C28.08861328 36.35782227 28.80662109 36.21344727 29.54638672 36.06469727 C47.79172197 32.79280651 66.94912337 32.92299938 83.37060547 42.50219727 C83.37060547 42.83219727 83.37060547 43.16219727 83.37060547 43.50219727 C82.53327881 43.51154297 81.69595215 43.52088867 80.83325195 43.53051758 C16.30956289 43.97897156 16.30956289 43.97897156 -38.83642578 72.76000977 C-45.66028174 81.00610097 -48.21696473 88.95507814 -48.37939453 99.56469727 C-48.42386719 101.00619141 -48.42386719 101.00619141 -48.46923828 102.47680664 C-48.53914506 104.81868357 -48.59222589 107.15961141 -48.62939453 109.50219727 C-53.27693377 106.32017127 -55.3728503 103.00651876 -57.75439453 98.06469727 C-58.09986328 97.35240967 -58.44533203 96.64012207 -58.80126953 95.90625 C-66.72100472 78.99557498 -66.4677811 61.95632854 -60.62939453 44.50219727 C-60.21367188 43.18348633 -60.21367188 43.18348633 -59.78955078 41.83813477 C-55.17161285 28.7717113 -46.17393123 18.24469472 -36.62939453 8.50219727 C-35.89333984 7.7274707 -35.15728516 6.95274414 -34.39892578 6.15454102 C-32.522376 4.21265681 -30.60127668 2.34658703 -28.62939453 0.50219727 C-28.09314453 -0.03663086 -27.55689453 -0.57545898 -27.00439453 -1.13061523 C-19.17621356 -8.01790907 -8.52424777 -3.55694975 0 0 Z " fill="#F5F8FA" transform="translate(120.62939453125,152.497802734375)"/>
<path d="M0 0 C3.32368224 1.10789408 3.61563093 1.48436217 5.25 4.375 C5.60578125 4.98085937 5.9615625 5.58671875 6.328125 6.2109375 C7 8 7 8 6 11 C4.28515625 12.5078125 4.28515625 12.5078125 2.0625 14.125 C-6.67111997 20.74344638 -14.41159075 28.30135315 -22.1875 36 C-22.94796631 36.74741455 -23.70843262 37.4948291 -24.49194336 38.26489258 C-28.19212684 41.95942631 -31.76081241 45.73534587 -35.11328125 49.75 C-35.69505127 50.44609375 -36.27682129 51.1421875 -36.8762207 51.859375 C-38.23979164 53.99122512 -38.23979164 53.99122512 -37.77807617 56.65234375 C-36.9378202 59.18761247 -36.03801533 60.31642211 -34 62 C-33.18208984 60.98292969 -33.18208984 60.98292969 -32.34765625 59.9453125 C-31.59355469 59.01460938 -30.83945313 58.08390625 -30.0625 57.125 C-29.33160156 56.22007812 -28.60070312 55.31515625 -27.84765625 54.3828125 C-20.90286713 46.0206663 -13.38638049 38.22677878 -5.6875 30.5625 C-4.80771484 29.67884766 -3.92792969 28.79519531 -3.02148438 27.88476562 C-2.17263672 27.03720703 -1.32378906 26.18964844 -0.44921875 25.31640625 C0.69027222 24.17860718 0.69027222 24.17860718 1.8527832 23.01782227 C7.12919724 18.05937292 7.12919724 18.05937292 10.75 17.8125 C11.86375 17.9053125 11.86375 17.9053125 13 18 C13.78417969 19.69189453 13.78417969 19.69189453 14 22 C12.17675781 24.34326172 12.17675781 24.34326172 9.453125 26.9296875 C8.97055237 27.39684677 8.48797974 27.86400604 7.99078369 28.34532166 C6.95633791 29.34601299 5.91681615 30.34147843 4.87280273 31.33218384 C2.17149792 33.90034362 -0.4860832 36.51255247 -3.140625 39.12890625 C-3.65987549 39.64005478 -4.17912598 40.15120331 -4.71411133 40.67784119 C-10.44344198 46.3617438 -15.33438287 52.43650472 -20 59 C-20.63292969 59.84949219 -21.26585937 60.69898438 -21.91796875 61.57421875 C-35.9335226 80.78759389 -43.62673984 101.5647189 -47 125 C-51.56454251 124.45660208 -54.9728176 123.20536179 -59 121 C-58.22020937 149.73386782 -58.22020937 149.73386782 -51.2421875 177.40234375 C-50 181 -50 181 -50 184 C-52.28515625 184.296875 -52.28515625 184.296875 -55 184 C-57.94808911 180.76537955 -59.88660069 176.81911406 -62 173 C-62.52980469 172.06285156 -63.05960938 171.12570312 -63.60546875 170.16015625 C-72.06633324 154.30419169 -75.37245941 137.43136951 -75.25 119.5625 C-75.25773437 118.43779297 -75.26546875 117.31308594 -75.2734375 116.15429688 C-75.19216807 80.78177803 -59.41632235 51.53677956 -35.1875 26.875 C-26.35549163 18.09013113 -16.69032801 10.61760073 -6.3125 3.75 C-5.72404297 3.35449951 -5.13558594 2.95899902 -4.52929688 2.55151367 C-2.86328125 1.484375 -2.86328125 1.484375 0 0 Z " fill="#F4F6F8" transform="translate(152,234)"/>
<path d="M0 0 C2.475 0.495 2.475 0.495 5 1 C3.5799951 4.98470764 1.66108157 8.15790208 -0.75 11.625 C-3.99367217 16.40268319 -6.86379526 21.23661501 -9.55859375 26.33984375 C-11.01118751 29.02064687 -12.57851705 31.59810484 -14.1875 34.1875 C-16.7198204 38.3415689 -18.46309649 42.38928947 -20 47 C-19.48050781 46.51789063 -18.96101563 46.03578125 -18.42578125 45.5390625 C-11.49912127 39.26537786 -11.49912127 39.26537786 -7 38 C-7.391875 39.134375 -7.78375 40.26875 -8.1875 41.4375 C-9.74201972 46.12337284 -11.20148783 50.83549161 -12.625 55.5625 C-12.84309326 56.27011475 -13.06118652 56.97772949 -13.28588867 57.70678711 C-21.07413979 83.86235566 -16.3107407 114.06515192 -4 138 C0.75396413 146.62787275 6.5705864 154.54824148 13 162 C13.43151367 162.50917969 13.86302734 163.01835937 14.30761719 163.54296875 C23.36623615 174.15863635 33.15580799 182.20752125 46 188 C46 188.66 46 189.32 46 190 C42.25269101 192.49820599 40.69885892 192.13208124 36.40771484 191.53466797 C32.51664834 190.67060027 29.26956538 189.00454288 25.8125 187.0625 C25.0812793 186.66063477 24.35005859 186.25876953 23.59667969 185.84472656 C-1.6858005 171.65009049 -21.12868237 150.52302764 -29.875 122.5 C-30.28230822 121.00844879 -30.65198202 119.50648879 -31 118 C-31.16701416 117.36682861 -31.33402832 116.73365723 -31.50610352 116.08129883 C-32.96687481 110.21691207 -33.27327814 104.71454325 -33.1875 98.6875 C-33.18685547 97.80771484 -33.18621094 96.92792969 -33.18554688 96.02148438 C-33.15916457 92.16087391 -33.06115824 88.73284242 -32 85 C-34.31 84.34 -36.62 83.68 -39 83 C-39.06058594 83.83144531 -39.12117187 84.66289062 -39.18359375 85.51953125 C-39.26738281 86.60621094 -39.35117188 87.69289063 -39.4375 88.8125 C-39.51871094 89.89144531 -39.59992188 90.97039062 -39.68359375 92.08203125 C-40 95 -40 95 -41 98 C-43.02968164 123.17420287 -37.62245821 148.06038476 -21.59375 167.9921875 C-19.45456327 170.39520726 -17.26108292 172.71210582 -15 175 C-14.21625 175.86625 -13.4325 176.7325 -12.625 177.625 C-6.95136831 182.75828582 -0.60325414 187.14810175 6 191 C2.71595353 193.18936431 0.90774419 193.75698108 -3 194 C-22.35152657 185.81281568 -36.94770282 164.68062204 -44.609375 145.9296875 C-54.56793602 118.86599481 -51.70225582 88.43183935 -40.11279297 62.390625 C-34.58159726 50.50789828 -28.44676606 38.79851199 -21 28 C-20.49033691 27.25331055 -19.98067383 26.50662109 -19.45556641 25.73730469 C-17.64554204 23.08974602 -15.82484072 20.44986626 -14 17.8125 C-13.12734497 16.54587524 -13.12734497 16.54587524 -12.23706055 15.25366211 C-8.46674803 9.86182376 -4.44057973 4.85477514 0 0 Z " fill="#F3F4F6" transform="translate(187,248)"/>
<path d="M0 0 C1.32 0 2.64 0 4 0 C3.9685791 1.46300537 3.9685791 1.46300537 3.93652344 2.95556641 C2.95492059 37.41683784 2.95492059 37.41683784 13 70 C13.50273437 71.10085938 14.00546875 72.20171875 14.5234375 73.3359375 C21.77287356 88.75375223 32.08088706 100.9568035 44 113 C44.85851562 113.88300781 45.71703125 114.76601563 46.6015625 115.67578125 C55.3435119 124.15408456 65.76971945 130.48551829 76 137 C77.08547119 137.69585205 77.08547119 137.69585205 78.19287109 138.40576172 C86.80254255 143.88921516 95.49212688 148.26424091 105 152 C100.6402439 156.86280488 100.6402439 156.86280488 97.921875 157.4453125 C64.19353777 152.47098938 33.8456297 132.73605379 13.45727539 105.72485352 C7.78842354 98.0803403 3.92887294 90.76434122 0.52734375 81.87890625 C-0.68342975 78.86067238 -0.68342975 78.86067238 -3.18359375 78.08984375 C-4.08271484 78.04537109 -4.08271484 78.04537109 -5 78 C-1.06447575 100.84523831 7.40497969 119.86910648 23 137 C24.22009766 138.51400391 24.22009766 138.51400391 25.46484375 140.05859375 C37.11190527 153.5720565 54.43141304 160.61520924 71 166 C68.61664753 168.60194397 66.88297277 169.76391865 63.265625 170.12109375 C42.52120851 169.01234045 25.30232534 152.36575178 12 138 C9.79811511 135.4386237 7.86197106 132.81512291 6 130 C5.46375 129.24203125 4.9275 128.4840625 4.375 127.703125 C-13.28237244 101.69003167 -17.8854748 70.95371433 -12.60595703 40.20800781 C-5.85371082 5.85371082 -5.85371082 5.85371082 0 0 Z " fill="#F4F5F7" transform="translate(203,263)"/>
<path d="M0 0 C4.17023514 1.57978319 6.58715184 4.669226 9.4375 7.9375 C24.17863406 24.29341922 42.66433043 36.44679605 61.24609375 48.01953125 C72.55993831 55.07815847 83.89894582 62.25837219 94 71 C94.91136719 71.77859375 95.82273437 72.5571875 96.76171875 73.359375 C111.49083309 86.30009756 123.2711817 103.05361627 125.20263672 123.10351562 C125.80244415 132.55528534 126.42705393 145.90550855 119.953125 153.35546875 C118 155 118 155 117 155 C116.98582031 153.8140625 116.97164063 152.628125 116.95703125 151.40625 C116.44267059 130.08023637 109.8363377 111.03800601 94.69140625 95.5 C84.47102457 86.00646695 72.8142624 78.99629778 60.93994141 71.78564453 C32.17935839 54.31720871 32.17935839 54.31720871 23 46 C22.24847656 45.36578125 21.49695313 44.7315625 20.72265625 44.078125 C17.05369008 40.9731048 13.84473478 37.91151033 11 34 C11.66 32.68 12.32 31.36 13 30 C16.87059272 31.57158637 19.20418609 34.06622825 22.0625 37.0625 C25.5170026 40.82954005 25.5170026 40.82954005 30 43 C30.33 41.68 30.66 40.36 31 39 C30.42725342 38.7517749 29.85450684 38.5035498 29.2644043 38.24780273 C26.65295178 36.80875865 24.88092339 35.13991252 22.76953125 33.03515625 C21.97023193 32.23996582 21.17093262 31.44477539 20.34741211 30.62548828 C19.51089111 29.77970215 18.67437012 28.93391602 17.8125 28.0625 C16.95986572 27.20382324 16.10723145 26.34514648 15.22875977 25.46044922 C-0.25372408 9.73329438 -0.25372408 9.73329438 -3 2 C-2.01 1.34 -1.02 0.68 0 0 Z " fill="#F5F6F7" transform="translate(245,226)"/>
<path d="M0 0 C2.475 0.495 2.475 0.495 5 1 C5.18062988 1.68400879 5.36125977 2.36801758 5.54736328 3.07275391 C12.21921349 28.13750009 20.57304808 47.70769985 38 67 C38.69351563 67.77730469 39.38703125 68.55460937 40.1015625 69.35546875 C47.2091224 76.88838455 55.72632646 82.8291136 64 89 C74.70747844 96.99736897 84.59630921 105.48768572 94 115 C94.58523438 115.5878125 95.17046875 116.175625 95.7734375 116.78125 C100.99417268 122.38399019 105.21640689 128.84872954 108 136 C107.6875 138.89453125 107.6875 138.89453125 107 141 C106.01 141.33 105.02 141.66 104 142 C103.61070312 141.45472656 103.22140625 140.90945313 102.8203125 140.34765625 C92.55151146 126.5060696 78.0383924 116.99073847 64.046875 107.23046875 C57.41898972 102.60193746 51.29326608 97.78682551 45.39453125 92.2421875 C43.39628314 90.371071 41.36490836 88.61006894 39.25 86.875 C35.40630846 83.59468642 32.19680727 79.90435013 29 76 C28.22527344 75.06285156 27.45054687 74.12570312 26.65234375 73.16015625 C10.01913494 52.59126633 -1.3728413 26.84667422 0 0 Z " fill="#F5F4F6" transform="translate(219,269)"/>
<path d="M0 0 C1.32 0 2.64 0 4 0 C4.6127315 1.58003858 5.21451162 3.16432295 5.8125 4.75 C6.14894531 5.63171875 6.48539063 6.5134375 6.83203125 7.421875 C7.82039795 10.44978101 8.58541367 13.40401948 9.3125 16.5 C11.0609233 23.63034902 13.55773579 30.40329534 16.1875 37.25 C16.43054871 37.88551788 16.67359741 38.52103577 16.92401123 39.17581177 C27.63669894 67.10748058 43.55117665 89.45639245 63.26953125 111.6953125 C70.13013529 119.45941576 76.33225416 127.31531451 82 136 C81.67 136.66 81.34 137.32 81 138 C76.65939695 134.67604982 72.32721777 131.34135489 68 128 C67.41782715 127.55124512 66.8356543 127.10249023 66.23583984 126.64013672 C57.24907648 119.69963723 48.50611812 112.52301313 40 105 C39.27425781 104.37222656 38.54851562 103.74445313 37.80078125 103.09765625 C13.18776491 80.34222605 1.46452258 44.39526695 -0.11132812 11.68945312 C-0.22003412 7.78655731 -0.1796832 3.89979089 0 0 Z " fill="#F4F3F5" transform="translate(228,232)"/>
<path d="M0 0 C4.8235912 0.64188689 8.74662727 2.63292627 13.0625 4.75 C19.93955553 8.10151722 26.92060806 11.10085715 34 14 C67.02297304 27.54560928 104.59291973 43.04928824 120.59375 77.50390625 C125.92922398 90.76848739 126.93472425 105.09325433 122.94921875 118.86328125 C121.93097281 121.1553822 120.95815117 122.44455344 119 124 C118.34 124 117.68 124 117 124 C116.97421875 122.80246094 116.9484375 121.60492188 116.921875 120.37109375 C116.0904594 93.52468388 106.8156379 71.89247873 87.25 53.375 C74.51632549 42.22813723 58.42222113 35.27232714 43.00512695 28.64208984 C27.77816091 22.04950779 11.87978099 14.55982044 -1 4 C-0.67 2.68 -0.34 1.36 0 0 Z " fill="#F3F3F4" transform="translate(267,230)"/>
<path d="M0 0 C1.32 0.99 2.64 1.98 4 3 C3.67 3.99 3.34 4.98 3 6 C2.34 6 1.68 6 1 6 C0.66162109 6.82371094 0.66162109 6.82371094 0.31640625 7.6640625 C-1.39947242 10.70885611 -3.62421846 12.87156044 -6.0625 15.375 C-25.432121 35.99427397 -34.18869878 63.6857517 -34.18530273 91.66577148 C-34.1874751 93.66459254 -34.20594797 95.66337425 -34.22460938 97.66210938 C-34.23487851 104.51846672 -33.92561543 110.94151328 -32.4309082 117.64379883 C-31.97382105 120.14314619 -31.92870912 122.4648062 -32 125 C-34.33984375 124.76171875 -34.33984375 124.76171875 -37 124 C-42.24679037 117.47350466 -43.99741174 107.93652491 -46 100 C-46.22816406 99.18015625 -46.45632812 98.3603125 -46.69140625 97.515625 C-51.74141132 77.03308696 -46.04584447 57.80965784 -36 40 C-35.45472656 39.02417969 -34.90945312 38.04835938 -34.34765625 37.04296875 C-26.04076233 23.17106521 -13.55604441 8.84089853 0 0 Z " fill="#F3F3F6" transform="translate(93,262)"/>
<path d="M0 0 C0.57342069 14.47887241 0.04911636 25.26970165 -9.79296875 36.7734375 C-16.84880326 43.89171302 -25.5193092 48.30892872 -35.59570312 48.46899414 C-36.34787109 48.45860107 -37.10003906 48.44820801 -37.875 48.4375 C-38.66583984 48.42775146 -39.45667969 48.41800293 -40.27148438 48.40795898 C-50.99923052 48.08290916 -57.179571 44.40425981 -65.06640625 37.21875 C-66.97168963 35.03248544 -67.6331344 33.83194499 -68 31 C-66.75579353 30.4654744 -65.50429064 29.94791389 -64.25 29.4375 C-63.55390625 29.14746094 -62.8578125 28.85742188 -62.140625 28.55859375 C-59.61776959 27.90025739 -58.41767146 28.06412718 -56 29 C-54.89896629 29.83122595 -53.81672772 30.68768358 -52.75 31.5625 C-46.56607212 35.56113006 -39.0332524 34.80318006 -32 34 C-28.83018096 33.00363875 -26.81971964 31.84366284 -24 30 C-23.31421875 29.70867187 -22.6284375 29.41734375 -21.921875 29.1171875 C-19.48692957 27.70175174 -19.05763811 26.58735504 -18 24 C-17.58621094 23.12085938 -17.17242187 22.24171875 -16.74609375 21.3359375 C-13.8672306 14.82197252 -12.17365676 9.13571423 -12 2 C-10.56342755 1.66269158 -9.12569907 1.33030409 -7.6875 1 C-6.88699219 0.814375 -6.08648437 0.62875 -5.26171875 0.4375 C-3 0 -3 0 0 0 Z " fill="#F4F5F6" transform="translate(256,130)"/>
<path d="M0 0 C1.67542976 0.28604898 3.34385343 0.61781233 5 1 C4.39674836 5.63084343 2.41480232 9.31433022 0.25 13.375 C-3.68630903 21.01451819 -6.74158158 28.68743866 -9 37 C-9.38949829 38.36680908 -9.38949829 38.36680908 -9.78686523 39.76123047 C-12.14566168 48.79173108 -12.51820211 57.49048781 -12.4375 66.75 C-12.43243942 67.8761824 -12.43243942 67.8761824 -12.42727661 69.02511597 C-12.35477363 80.15602942 -11.81065536 90.4361418 -8 101 C-7.75862305 101.68723145 -7.51724609 102.37446289 -7.26855469 103.08251953 C-4.04549932 112.09693916 0.03663292 120.32001061 5.24291992 128.35595703 C6.21481681 129.87133647 7.11507733 131.43224037 8 133 C7.67 133.66 7.34 134.32 7 135 C4.4375 135.625 4.4375 135.625 2 136 C-16.73080804 115.227687 -23.3737911 87.50444266 -22 60 C-20.47670639 41.54910612 -13.91623693 13.91623693 0 0 Z " fill="#EFEFF0" transform="translate(137,297)"/>
<path d="M0 0 C3.18583124 0.58553217 4.8837344 1.48790978 7.22265625 3.7109375 C7.83439697 4.28706787 8.4461377 4.86319824 9.07641602 5.45678711 C9.73182373 6.08979736 10.38723145 6.72280762 11.0625 7.375 C11.75206787 8.03185791 12.44163574 8.68871582 13.15209961 9.36547852 C18.85169549 14.82507804 24.46776672 20.37071573 30.0625 25.9375 C30.8469751 26.71722168 31.6314502 27.49694336 32.43969727 28.30029297 C51.01159311 46.92581316 73.75882958 72.39434514 74.5 100.25 C74.44896762 105.37875411 74.44896762 105.37875411 72.65625 107.859375 C71 109 71 109 68 109 C67.91363281 108.23558594 67.82726562 107.47117187 67.73828125 106.68359375 C64.5526057 82.39647099 52.32267395 60.36762976 34.5859375 43.546875 C32.90032877 41.90278373 31.39676234 40.17142188 29.875 38.375 C26.59484821 34.56052484 23.07453568 31.03462214 19.5 27.5 C15.33975561 23.38155232 11.26963172 19.25148674 7.5 14.765625 C6.45428574 13.53473218 5.36686087 12.33859573 4.25 11.171875 C0.07978571 6.73136905 0.07978571 6.73136905 -0.375 2.5625 C-0.25125 1.716875 -0.1275 0.87125 0 0 Z " fill="#F1F0F1" transform="translate(273,290)"/>
<path d="M0 0 C-0.33 1.98 -0.66 3.96 -1 6 C-2.15435547 6.02126953 -2.15435547 6.02126953 -3.33203125 6.04296875 C-12.28863432 6.41490401 -20.93707422 7.74119369 -29.75 9.375 C-31.45313354 9.68860474 -31.45313354 9.68860474 -33.19067383 10.00854492 C-39.47877414 11.20743275 -45.62411082 12.63029364 -51.76660156 14.43603516 C-54 15 -54 15 -57 15 C-57.33 12.69 -57.66 10.38 -58 8 C-56.99839844 7.80664062 -55.99679687 7.61328125 -54.96484375 7.4140625 C-53.62236492 7.15119951 -52.27991873 6.88816974 -50.9375 6.625 C-49.95233398 6.43550781 -49.95233398 6.43550781 -48.94726562 6.2421875 C-45.76048718 5.61425086 -42.68227449 4.90767568 -39.55859375 4 C-26.58895341 0.35540293 -13.39935552 -0.46322996 0 0 Z " fill="#0D0D0D" transform="translate(360,152)"/>
<path d="M0 0 C0 1.65 0 3.3 0 5 C-1.17433594 5.29132813 -2.34867188 5.58265625 -3.55859375 5.8828125 C-15.64926272 8.94025211 -27.29119804 12.70540032 -38.953125 17.1171875 C-41.375 18 -41.375 18 -45 19 C-45.99 18.34 -46.98 17.68 -48 17 C-47 14 -47 14 -45.44384766 13.02026367 C-44.77401855 12.73900635 -44.10418945 12.45774902 -43.4140625 12.16796875 C-42.65681885 11.84707275 -41.8995752 11.52617676 -41.11938477 11.19555664 C-40.29623779 10.86289795 -39.47309082 10.53023926 -38.625 10.1875 C-37.78316162 9.84001709 -36.94132324 9.49253418 -36.07397461 9.13452148 C-27.23023758 5.55946355 -18.17611881 2.59964442 -9 0 C-8.31671631 -0.19730713 -7.63343262 -0.39461426 -6.92944336 -0.59790039 C-4.41190441 -1.12256022 -2.46973737 -0.61743434 0 0 Z " fill="#111011" transform="translate(248,98)"/>
<path d="M0 0 C0.78375 0.66 1.5675 1.32 2.375 2 C5.85866763 4.65422296 7.69707397 4.51931866 12 4 C13.19625 3.443125 14.3925 2.88625 15.625 2.3125 C16.73875 1.879375 17.8525 1.44625 19 1 C21.9375 2.3125 21.9375 2.3125 24 4 C22.48042234 7.86801585 20.55415052 9.85270073 17 12 C10.26738244 13.74200594 4.1893737 13.1799735 -2 10 C-5.0625 7.5625 -5.0625 7.5625 -7 5 C-7 3.68 -7 2.36 -7 1 C-4.39120333 -0.30439833 -2.90289827 -0.33754631 0 0 Z " fill="#EDEDEF" transform="translate(207,143)"/>
<path d="M0 0 C2.95026053 0.59714854 4.97654439 1.46423591 7.41796875 3.21484375 C8.33932617 3.87323242 8.33932617 3.87323242 9.27929688 4.54492188 C10.22385742 5.23424805 10.22385742 5.23424805 11.1875 5.9375 C11.82880859 6.39318359 12.47011719 6.84886719 13.13085938 7.31835938 C17.86714234 10.73428468 17.86714234 10.73428468 19 13 C13.08084407 15.35087044 7.40763615 17.13000397 1 16 C-2.39082252 13.88073593 -2.88319436 12.40151938 -4 8.5625 C-4 5 -4 5 -2.0625 2.0625 C-1.381875 1.381875 -0.70125 0.70125 0 0 Z " fill="#0A0B0B" transform="translate(117,162)"/>
<path d="M0 0 C-2.37666257 2.60264032 -4.93281146 4.29836115 -7.9375 6.125 C-13.35195433 9.50633033 -18.40319009 13.209544 -23.46875 17.08203125 C-25.26960211 18.4465658 -27.1200408 19.74669387 -29 21 C-27.48548292 14.72557209 -25.39078159 12.59096459 -20 9.125 C-19.32098633 8.68244873 -18.64197266 8.23989746 -17.94238281 7.78393555 C-3.89744501 -1.29914834 -3.89744501 -1.29914834 0 0 Z " fill="#19191B" transform="translate(182,82)"/>
<path d="M0 0 C1.32 0 2.64 0 4 0 C3.67 10.23 3.34 20.46 3 31 C2.67 31 2.34 31 2 31 C2 25.06 2 19.12 2 13 C-0.31 13.33 -2.62 13.66 -5 14 C-4.54857225 12.22739369 -4.08859477 10.4569632 -3.625 8.6875 C-3.36976563 7.70136719 -3.11453125 6.71523438 -2.8515625 5.69921875 C-2 3 -2 3 0 0 Z " fill="#CFCED1" transform="translate(203,263)"/>
<path d="M0 0 C1.32 0.99 2.64 1.98 4 3 C3.67 3.99 3.34 4.98 3 6 C2.34 6 1.68 6 1 6 C0.7525 6.598125 0.505 7.19625 0.25 7.8125 C-1.16370012 10.28647521 -2.65055383 11.43370255 -5 13 C-5.33 12.67 -5.66 12.34 -6 12 C-8.37305578 11.58219121 -8.37305578 11.58219121 -11 12 C-13.31377147 13.89584109 -13.31377147 13.89584109 -15 16 C-15.66 15.67 -16.32 15.34 -17 15 C-11.64381862 9.44983217 -6.47601564 4.22348846 0 0 Z " fill="#CFCFD2" transform="translate(93,262)"/>
<path d="M0 0 C1.67542976 0.28604898 3.34385343 0.61781233 5 1 C4.65198447 3.57531492 4.29035995 5.54832896 2.875 7.75 C0.08261228 9.61159182 -2.71073498 9.68969198 -6 10 C-5.18957164 8.51969728 -4.37659652 7.04078858 -3.5625 5.5625 C-2.88380859 4.32693359 -2.88380859 4.32693359 -2.19140625 3.06640625 C-1 1 -1 1 0 0 Z " fill="#AAA9AE" transform="translate(137,297)"/>
<path d="M0 0 C1.32 0 2.64 0 4 0 C4.99 3.3 5.98 6.6 7 10 C4.03 9.505 4.03 9.505 1 9 C1 10.65 1 12.3 1 14 C0.67 14 0.34 14 0 14 C0 9.38 0 4.76 0 0 Z " fill="#6F6E70" transform="translate(228,232)"/>
<path d="M0 0 C8.35010941 2.15317287 8.35010941 2.15317287 11.0625 5.6875 C11.371875 6.450625 11.68125 7.21375 12 8 C7.03083364 7.48594831 2.70973649 6.76615118 -2 5 C-1.01 4.67 -0.02 4.34 1 4 C0.67 2.68 0.34 1.36 0 0 Z " fill="#464447" transform="translate(399,154)"/>
<path d="M0 0 C0.680625 0.12375 1.36125 0.2475 2.0625 0.375 C2.3925 1.695 2.7225 3.015 3.0625 4.375 C1.4125 5.695 -0.2375 7.015 -1.9375 8.375 C-2.2675 7.055 -2.5975 5.735 -2.9375 4.375 C-3.72125 4.890625 -4.505 5.40625 -5.3125 5.9375 C-6.17875 6.411875 -7.045 6.88625 -7.9375 7.375 C-8.5975 7.045 -9.2575 6.715 -9.9375 6.375 C-3.86310175 0.49316193 -3.86310175 0.49316193 0 0 Z " fill="#A9ABAE" transform="translate(162.9375,251.625)"/>
<path d="M0 0 C0 0.99 0 1.98 0 3 C0.99 3.66 1.98 4.32 3 5 C1.10614563 5.50744423 -0.79018666 6.00564574 -2.6875 6.5 C-3.74324219 6.7784375 -4.79898437 7.056875 -5.88671875 7.34375 C-8.71142672 7.9391715 -11.12836708 8.12786492 -14 8 C-11.49941082 5.08975798 -8.80344623 3.83208836 -5.3125 2.3125 C-4.31863281 1.87550781 -3.32476562 1.43851562 -2.30078125 0.98828125 C-1.54152344 0.66214844 -0.78226562 0.33601563 0 0 Z " fill="#CFCFD0" transform="translate(296,111)"/>
<path d="M0 0 C2.625 0.375 2.625 0.375 5 1 C3.92598892 3.91517292 3.22189824 5.77810176 1 8 C-1.475 7.01 -1.475 7.01 -4 6 C-2.84826645 3.53199953 -1.95216435 1.95216435 0 0 Z " fill="#919091" transform="translate(187,248)"/>
<path d="M0 0 C1.32 0.99 2.64 1.98 4 3 C3.67 3.99 3.34 4.98 3 6 C2.34 6 1.68 6 1 6 C0.67 6.99 0.34 7.98 0 9 C-0.33 8.01 -0.66 7.02 -1 6 C-3.01508358 5.26676204 -3.01508358 5.26676204 -5 5 C-3.35 3.35 -1.7 1.7 0 0 Z " fill="#7D7A7D" transform="translate(93,262)"/>
<path d="M0 0 C0.33 1.65 0.66 3.3 1 5 C0.01 5.66 -0.98 6.32 -2 7 C-3.33841672 6.68770276 -4.67139075 6.35169068 -6 6 C-8.68149993 6.38567131 -8.68149993 6.38567131 -11 7 C-8.22222753 2.76024203 -5.22996752 0 0 0 Z " fill="#CECFD3" transform="translate(160,256)"/>
<path d="M0 0 C2 3 2 3 2 5 C2.99 5.33 3.98 5.66 5 6 C4.01 7.32 3.02 8.64 2 10 C-0.475 9.01 -0.475 9.01 -3 8 C-2.45276317 4.62537285 -1.9451 2.91765 0 0 Z " fill="#A3A7A6" transform="translate(129,112)"/>
<path d="M0 0 C-0.99 0.66 -1.98 1.32 -3 2 C-3 2.99 -3 3.98 -3 5 C-5.70879335 6.35439668 -8.00933268 6.06501451 -11 6 C-10.74609375 4.11328125 -10.74609375 4.11328125 -10 2 C-8.22265625 0.91796875 -8.22265625 0.91796875 -6.0625 0.1875 C-5.35222656 -0.06644531 -4.64195312 -0.32039062 -3.91015625 -0.58203125 C-2 -1 -2 -1 0 0 Z " fill="#B4B3B6" transform="translate(288,142)"/>
<path d="M0 0 C1.6875 2.5 1.6875 2.5 3 5 C0.525 6.485 0.525 6.485 -2 8 C-5 4.375 -5 4.375 -5 1 C-3 0 -3 0 0 0 Z " fill="#767476" transform="translate(243,221)"/>
<path d="M0 0 C2.475 0.495 2.475 0.495 5 1 C5.33 2.98 5.66 4.96 6 7 C4.35 6.67 2.7 6.34 1 6 C1 7.65 1 9.3 1 11 C0.67 11 0.34 11 0 11 C0 7.37 0 3.74 0 0 Z " fill="#6C686A" transform="translate(218,263)"/>
<path d="M0 0 C1.32 0.66 2.64 1.32 4 2 C4 5 4 5 3 8 C3.66 8 4.32 8 5 8 C4.67 8.99 4.34 9.98 4 11 C2.02 8.69 0.04 6.38 -2 4 C-1.34 2.68 -0.68 1.36 0 0 Z " fill="#A9A7AB" transform="translate(258,256)"/>
<path d="M0 0 C1.875 0.3125 1.875 0.3125 4 1 C4.66 1.99 5.32 2.98 6 4 C5.125 7.1875 5.125 7.1875 4 10 C2 8.375 2 8.375 0 6 C-0.25 2.75 -0.25 2.75 0 0 Z " fill="#A2A1A2" transform="translate(273,290)"/>
<path d="M0 0 C2.475 0.495 2.475 0.495 5 1 C5.33 2.65 5.66 4.3 6 6 C4.35 5.67 2.7 5.34 1 5 C1 7.31 1 9.62 1 12 C0.67 12 0.34 12 0 12 C0 8.04 0 4.08 0 0 Z " fill="#B8B5B8" transform="translate(219,269)"/>
<path d="M0 0 C0.86625 0.3403125 0.86625 0.3403125 1.75 0.6875 C1.75 2.0075 1.75 3.3275 1.75 4.6875 C0.76 5.3475 -0.23 6.0075 -1.25 6.6875 C-1.58 5.6975 -1.91 4.7075 -2.25 3.6875 C-4.26508358 2.95426204 -4.26508358 2.95426204 -6.25 2.6875 C-2.80384615 -0.38942308 -2.80384615 -0.38942308 0 0 Z " fill="#46474B" transform="translate(167.25,248.3125)"/>
<path d="M0 0 C0 0.66 0 1.32 0 2 C-0.99 2 -1.98 2 -3 2 C-3 2.66 -3 3.32 -3 4 C-2.34 4.33 -1.68 4.66 -1 5 C-5.455 5.495 -5.455 5.495 -10 6 C-8 2 -8 2 -5 0.75 C-2 0 -2 0 0 0 Z " fill="#8F8E90" transform="translate(288,131)"/>
<path d="M0 0 C1.32 0 2.64 0 4 0 C4 3.63 4 7.26 4 11 C3.67 11 3.34 11 3 11 C3 9.02 3 7.04 3 5 C1.35 5 -0.3 5 -2 5 C-1.34 3.35 -0.68 1.7 0 0 Z " fill="#736F74" transform="translate(203,263)"/>
<path d="M0 0 C0 0.99 0 1.98 0 3 C-4.455 4.485 -4.455 4.485 -9 6 C-9 4.68 -9 3.36 -9 2 C-3.375 0 -3.375 0 0 0 Z " fill="#1A1A1B" transform="translate(312,118)"/>
<path d="M0 0 C-0.33 1.65 -0.66 3.3 -1 5 C-3.64 5.33 -6.28 5.66 -9 6 C-6.97377245 1.32409027 -5.29661848 0 0 0 Z " fill="#CCCBCF" transform="translate(138,305)"/>
<path d="M0 0 C1.875 0.3125 1.875 0.3125 4 1 C4.66 1.99 5.32 2.98 6 4 C3.525 5.485 3.525 5.485 1 7 C-1 4 -1 4 -0.625 1.8125 C-0.41875 1.214375 -0.2125 0.61625 0 0 Z " fill="#4E4D50" transform="translate(254,252)"/>
<path d="M0 0 C0.66 0 1.32 0 2 0 C2 0.66 2 1.32 2 2 C2.66 2 3.32 2 4 2 C3.34 3.65 2.68 5.3 2 7 C0.02 6.34 -1.96 5.68 -4 5 C-2.71937515 3.2925002 -1.38232443 1.62626404 0 0 Z " fill="#4A494A" transform="translate(191,243)"/>
<path d="M0 0 C5.75 0.75 5.75 0.75 8 3 C7.34 3 6.68 3 6 3 C5.34 4.32 4.68 5.64 4 7 C2 5.1875 2 5.1875 0 3 C0 2.01 0 1.02 0 0 Z " fill="#57585B" transform="translate(261,227)"/>
<path d="M0 0 C3.16115776 1.36983503 3.9927092 1.9890638 6 5 C3.525 6.485 3.525 6.485 1 8 C1 6.68 1 5.36 1 4 C0.34 4 -0.32 4 -1 4 C-0.67 2.68 -0.34 1.36 0 0 Z " fill="#DBDADE" transform="translate(262,260)"/>
<path d="M0 0 C1.32 0.66 2.64 1.32 4 2 C3.01 2.495 3.01 2.495 2 3 C2 4.65 2 6.3 2 8 C0.35 6.35 -1.3 4.7 -3 3 C-2.01 2.01 -1.02 1.02 0 0 Z " fill="#464545" transform="translate(271,287)"/>
<path d="M0 0 C2.475 0.495 2.475 0.495 5 1 C5.33 2.65 5.66 4.3 6 6 C3.03 5.505 3.03 5.505 0 5 C0 3.35 0 1.7 0 0 Z " fill="#A09EA0" transform="translate(229,236)"/>
<path d="M0 0 C-2.54456151 2.96865509 -5.48994665 4.3619751 -9 6 C-9 4.68 -9 3.36 -9 2 C-3.375 -1.125 -3.375 -1.125 0 0 Z " fill="#1F1F22" transform="translate(182,82)"/>
<path d="M0 0 C-2.85306797 2.32472205 -5.54074837 3.7508258 -9 5 C-9 4.34 -9 3.68 -9 3 C-9.66 2.67 -10.32 2.34 -11 2 C-9.73392393 1.46770674 -8.46189588 0.94955456 -7.1875 0.4375 C-6.47980469 0.14746094 -5.77210938 -0.14257812 -5.04296875 -0.44140625 C-3 -1 -3 -1 0 0 Z " fill="#242528" transform="translate(191,67)"/>
<path d="M0 0 C2.4375 0.75 2.4375 0.75 5 2 C5.8125 4.125 5.8125 4.125 6 6 C3.36 5.67 0.72 5.34 -2 5 C-1.01 4.67 -0.02 4.34 1 4 C0.67 2.68 0.34 1.36 0 0 Z " fill="#949397" transform="translate(399,154)"/>
<path d="M0 0 C0.66 0.33 1.32 0.66 2 1 C2 1.99 2 2.98 2 4 C-2.455 4.495 -2.455 4.495 -7 5 C-7 4.34 -7 3.68 -7 3 C-4.69631264 1.93347808 -2.35981813 0.93578995 0 0 Z " fill="#C6C4C7" transform="translate(289,121)"/>
<path d="M0 0 C1.32 0 2.64 0 4 0 C2.74874616 3.75376152 1.4347596 4.24073289 -2 6 C-2.66 6 -3.32 6 -4 6 C-2.84826645 3.53199953 -1.95216435 1.95216435 0 0 Z " fill="#101011" transform="translate(178,70)"/>
<path d="M0 0 C2.625 0.375 2.625 0.375 5 1 C4.67 2.65 4.34 4.3 4 6 C3.34 5.34 2.68 4.68 2 4 C0.68252676 3.30251417 -0.64914193 2.63040043 -2 2 C-1.34 1.34 -0.68 0.68 0 0 Z " fill="#616262" transform="translate(137,297)"/>
<path d="M0 0 C0 3.77910478 -0.99703962 4.46106101 -3.5 7.1875 C-4.1496875 7.90292969 -4.799375 8.61835938 -5.46875 9.35546875 C-5.9740625 9.89816406 -6.479375 10.44085938 -7 11 C-7.66 10.67 -8.32 10.34 -9 10 C-6.03 6.7 -3.06 3.4 0 0 Z " fill="#D0D1D5" transform="translate(112,266)"/>
<path d="M0 0 C2.0625 0.4375 2.0625 0.4375 4 1 C4 1.99 4 2.98 4 4 C3.360625 4.12375 2.72125 4.2475 2.0625 4.375 C1.0415625 4.684375 1.0415625 4.684375 0 5 C-0.33 5.66 -0.66 6.32 -1 7 C-1.66 6.67 -2.32 6.34 -3 6 C-1.125 1.125 -1.125 1.125 0 0 Z " fill="#B2AEB3" transform="translate(202,267)"/>
<path d="M0 0 C0.66 0 1.32 0 2 0 C2 0.66 2 1.32 2 2 C2.66 2 3.32 2 4 2 C3.34 3.32 2.68 4.64 2 6 C-0.475 5.01 -0.475 5.01 -3 4 C-1.625 2 -1.625 2 0 0 Z " fill="#2D2E2F" transform="translate(140,293)"/>
<path d="M0 0 C2.375 -0.125 2.375 -0.125 5 0 C5.66 0.66 6.32 1.32 7 2 C6.625 4.125 6.625 4.125 6 6 C6 5.01 6 4.02 6 3 C4.02 3 2.04 3 0 3 C0 2.01 0 1.02 0 0 Z " fill="#CFCECF" transform="translate(229,241)"/>
<path d="M0 0 C0.33 0.66 0.66 1.32 1 2 C-0.76227632 5.61730402 -2.64326421 7.80075931 -6 10 C-4.6302836 6.00499382 -2.74277578 3.19990508 0 0 Z " fill="#CACFD4" transform="translate(74,172)"/>
<path d="M0 0 C-0.66 1.32 -1.32 2.64 -2 4 C-4.475 3.01 -4.475 3.01 -7 2 C-7 1.34 -7 0.68 -7 0 C-3.86650268 -1.04449911 -3.01031744 -0.93423645 0 0 Z " fill="#BBB9BB" transform="translate(190,252)"/>
<path d="M0 0 C0.66 0.33 1.32 0.66 2 1 C1.67 1.99 1.34 2.98 1 4 C1.66 4.33 2.32 4.66 3 5 C1.02 5 -0.96 5 -3 5 C-2.625 3.0625 -2.625 3.0625 -2 1 C-1.34 0.67 -0.68 0.34 0 0 Z " fill="#656468" transform="translate(280,143)"/>
<path d="M0 0 C1.2065625 0.0309375 1.2065625 0.0309375 2.4375 0.0625 C2.7675 1.3825 3.0975 2.7025 3.4375 4.0625 C2.4475 4.0625 1.4575 4.0625 0.4375 4.0625 C0.4375 3.4025 0.4375 2.7425 0.4375 2.0625 C-0.8825 1.7325 -2.2025 1.4025 -3.5625 1.0625 C-2.5625 0.0625 -2.5625 0.0625 0 0 Z " fill="#808286" transform="translate(162.5625,251.9375)"/>
<path d="M0 0 C1.65 0.33 3.3 0.66 5 1 C4.01 1.33 3.02 1.66 2 2 C2.33 2.99 2.66 3.98 3 5 C2.01 5 1.02 5 0 5 C-0.33 4.01 -0.66 3.02 -1 2 C-0.67 1.34 -0.34 0.68 0 0 Z " fill="#A9ABAE" transform="translate(267,230)"/>
<path d="M0 0 C1.32 0.66 2.64 1.32 4 2 C4 2.99 4 3.98 4 5 C2.02 5 0.04 5 -2 5 C-1.34 4.67 -0.68 4.34 0 4 C0 2.68 0 1.36 0 0 Z " fill="#D3D4D7" transform="translate(396,153)"/>
<path d="M0 0 C1.65 0.33 3.3 0.66 5 1 C4.67 1.99 4.34 2.98 4 4 C2.35 3.67 0.7 3.34 -1 3 C-0.67 2.01 -0.34 1.02 0 0 Z " fill="#8E8F8F" transform="translate(135,300)"/>
<path d="M0 0 C1.32 0 2.64 0 4 0 C4 2.31 4 4.62 4 7 C3.67 5.68 3.34 4.36 3 3 C1.68 2.67 0.36 2.34 -1 2 C-0.67 1.34 -0.34 0.68 0 0 Z " fill="#343234" transform="translate(204,260)"/>
<path d="M0 0 C0.99 0.33 1.98 0.66 3 1 C1.35 2.65 -0.3 4.3 -2 6 C-2.33 4.68 -2.66 3.36 -3 2 C-2.01 1.34 -1.02 0.68 0 0 Z " fill="#C1C0C1" transform="translate(245,226)"/>
</svg>
